<?xml version='1.0' encoding='utf-8'?>
<svg style="height: 300px; width: 600px;" xmlns="http://www.w3.org/2000/svg" version="1.2" baseProfile="tiny" id="Capa_2" x="0px" y="0px" viewBox="0 0 1920 1080"> 
<path id="XMLID_56_" fill="none" stroke="#ffffff" stroke-width="2.8346" stroke-linecap="round" stroke-linejoin="round" stroke-miterlimit="10" 
d=" M505,399.5c-18.3-6-39.3-3.4-55.5,7c5.5,1.4,10.9,3,16.3,5c0.2,7.2-16.1,1-17.5,8.1c-1,5,8.3,9.2,5.4,13.4c4,1.2,8,2.4,12.1,3.6 c-5,4.3-10,8.6-15,12.9c17.8,6.1,33.9-14.6,52.7-16.1c11.8-1,22.7,5.8,31.8,13.4c8.7,7.3,16.7,15.9,20.7,26.6 c1.9,5.2,2.8,10.8,4,16.2c4.7,22.2,13.8,43.4,26.6,62.1c2.6-9.1,0.7-19.3-5.1-26.8c11.6,7.2,10.8,24.6,18.9,35.6 c11.7,15.8,38.1,14.1,49.6,30c3,4.1,4.7,9.1,8.2,12.7c3.6,3.6,10.3,4.9,13.3,0.9c3.4,2.3,3.9,7.2,2.5,11c-1.4,3.8-4.2,6.9-6.5,10.2 c-9.9,14.3-10,34.6-0.4,49c3.4,5,7.7,9.3,10.6,14.6c8.2,15.1,2,33.7-3.2,50.1c-7.3,22.8-12.6,46.4-15.7,70.1 c-1.5,11.5-2,24.6,5.9,33c8,8.5,23.4,8,30.9-1c-9.2-6-10.4-19.2-7.6-29.7c2.8-10.6,8.6-20.3,10.1-31.2c11.9-1.8,22.9-9,29.3-19.2 c10-6.2,17.7-16,21.2-27.2c0.9-2.8,1.6-5.8,3.3-8.3c3.8-5.2,11.1-6,16.9-8.8c6.9-3.2,12.1-9.7,13.8-17.2c1.4-6.2,0.5-13,3-18.8 c3.3-7.7,12.1-12.8,13.1-21.1c1-8.5-6.8-15.4-14.7-18.8c-7.8-3.4-16.7-5.2-22.8-11.1c-5-4.8-7.4-11.7-12.1-16.9 c-9.8-10.8-26.9-11.3-38.3-20.3c-3-2.4-5.7-5.3-9.4-6.4c-3.7-1.1-8.6,1.2-8.5,5c-1.6-2.3-0.7-5.9,1.8-7.2c-6.7-3.7-12.2,6.8-19.2,10 c-5.6,2.6-13.2-0.9-14.9-6.9c-0.9-3.1-0.3-6.6-1.6-9.6c-1.7-4-6-6.1-8.7-9.5s-2.4-10,1.9-10.3c-0.7-3.8-6-4.5-9.7-3.2 c-3.7,1.3-7.4,3.6-11.1,2.5c-3.8-1.1-5.7-5.3-6.7-9.1c-1.5-5.7-1.9-12.2,1.7-16.8c4.3-5.5,13.1-5.9,19.1-2.3c6,3.6,9.5,10.3,11.6,17 c1.4,4.5,2.3,9.4,5.5,12.9c3.2,3.5,9.7,4.4,12.3,0.5c-5.7-4.8-7-13.4-4.9-20.6s6.7-13.3,11.3-19.1c7.6-9.8,15.2-19.5,22.8-29.3 c2.6-3.4,5.6-7,9.8-7.6c6.9-1,13.8,6.7,20.1,3.7c5.4-2.6,4.6-11.3-0.1-15.1c-4.7-3.8-11.2-4-17.2-4c6.8-4.4,14.9-6.8,23-7.1 c0.6,8.9,12,15,19.7,10.6c2-1.2,3.9-3.2,3.6-5.5c-0.1-1.2-0.8-2.3-1.4-3.3c-14.7-23-40.2-38.6-67.3-41.3c0.5,9.9-6.1,19.8-15.4,23.2 c-9.4,3.3-20.7-0.1-26.6-8.2c-1-1.4-1.9-2.9-2.1-4.5c-0.7-5.2,5.2-9.2,10.4-9.4c5.3-0.2,10.4,1.7,15.7,1.7 c5.3-0.1,11.3-3.4,11.2-8.7c0-1.7-0.8-3.6-0.1-5.2c0.6-1.5,2.5-2.4,4.1-1.8c2.9,10.5,13,18.2,23.8,19.6c10.8,1.4,21.9-3,30-10.2 c-19.5-15.5-44.1-24.5-69-25.1c-5.8-0.2-11.8,0.2-17.1,2.5c-5.2,2.3-9.4,6.5-14.3,9.5s-11.4,4.6-16.3,1.5c2.2-5.3-2.4-11.2-7.8-13.2 c-5.4-2-11.3-1.3-17-1.9c-7.4-0.7-14.4-3.5-21.7-4.4c-7.4-0.9-15.7,0.7-20,6.8c7.9,5.1,16.9,8.3,26.3,9.3 c-8.3-0.2-16.6-0.4-24.9-0.6c-19.4-0.5-38.8-1-58.2-1.5"/> 
<path id="XMLID_57_" fill="none" stroke="#ffffff" stroke-width="2.8346" stroke-linecap="round" stroke-linejoin="round" stroke-miterlimit="10" d=" M728.5,369.9c-3.7,3.4-8.3,5.8-13.2,6.9c0.9,5.5,8.1,7.2,13.7,6.8c5.6-0.4,12.2-1.4,16,2.7c1.7,1.8,2.5,4.3,3.2,6.7 c2.2,7.1,4.4,14.3,6.5,21.4c1.8,6,4.7,12.9,10.8,14.1c6.2,1.2,11.3-4.3,16.4-8.1c13.4-10.1,32.1-9.4,47-17.2 c2.3-1.2,4.6-2.8,5.1-5.3c0.4-1.7-0.2-3.6,0.6-5.2c1.9-3.8,8.3-0.7,11.9-3c1-0.6,1.7-1.6,2.1-2.7c1.7-5.1-3.4-10.4-2.1-15.6 c1.2-4.6,6.7-6.4,11.4-7.5c0.7-3.2,1.1-7.2-1.6-9c-4.3-2.8-9.3,3.7-14.3,3c-6.8-0.9-6.3-12.5-12.7-15c-2.7-1.1-5.8,0-8.6,0.9 c-9.3,3-19.1,4.3-28.9,3.9c-5.9-0.2-12.7-0.8-16.7,3.6c-1.6,1.7-2.5,4-4.2,5.5c-4.9,4.3-12.2,0.6-18.6-0.6 c-10-1.9-20.9,4.2-24.6,13.6"/> 
<path id="XMLID_58_" fill="none" stroke="#ffffff" stroke-width="2.8346" stroke-linecap="round" stroke-linejoin="round" stroke-miterlimit="10" d=" M884.3,509.3c-2.8,11.7-12.2,20.6-18.3,31c-12.4,21.4-9.3,50.9,8.1,68.5c2.5,2.6,5.4,4.9,8.9,6c10.4,3.1,20.4-6.9,31.3-7.3 c1.2,0,2.5,0.1,3.5,0.7c1,0.6,1.5,1.7,2.2,2.5c3.1,3.9,9.3,5,13.5,2.4c-2.7,10-2.2,20.8,1.5,30.5c1.5,3.9,3.5,7.6,4.4,11.7 c2.5,11-3,22-4.9,33.1c-2.5,14.6,1.6,30.1,10.9,41.6c4.4,5.5,10,10.1,13,16.4c1.8,3.8,2.8,8.1,5.8,11c6.2,6,17.1,1.9,22.3-4.9 c5.2-6.9,7.2-15.7,11.9-22.9c4.5-7,11.6-12.7,13.2-20.8c1-4.8,0.1-10.4,3.4-14c2.3-2.6,6-3.3,8.7-5.5c4.5-3.7,5-10.4,3.8-16.1 c-1.2-5.7-3.7-11.1-3.8-16.9c-0.2-12.1,9.5-21.7,16.5-31.6c7.3-10.2,12.2-22.2,14.2-34.6c-5.6,1-11.7,1.9-16.6-0.9 c-3.1-1.8-5.3-4.8-7.3-7.8c-4.3-6.6-8.1-13.5-11.4-20.6c-2.4-5.1-4.5-10.4-8.2-14.7c-2.6-3-5.9-5.3-7.9-8.7 c-2.5-4.1-2.9-9.2-5.4-13.2c-4.8-7.5-15.2-8.7-24.1-9c-2.6-0.1-5.2-0.2-7.5,1c-1.5,0.7-2.7,2-4.3,2.6c-3.1,1.3-6.6,0-9.6-1.3 c-3.2-1.4-6.5-2.7-9.7-4.1c-1.8-0.8-3.7-1.6-4.9-3.1c-1.2-1.5-1.5-3.5-2.4-5.3c-2-3.9-6.5-6-10.9-6.3s-8.7,1-12.9,2.3 c-9.3,2.8-18.7,5.6-28,8.4"/> 
<path id="XMLID_59_" fill="none" stroke="#ffffff" stroke-width="2.8346" stroke-linecap="round" stroke-linejoin="round" stroke-miterlimit="10" d=" M1043.2,682.2c-5,1.6-8.8,6.3-9.3,11.4c-0.3,3.2,0.5,6.4,0.9,9.6c0.6,3.9,0.5,7.9,0.4,11.8c-0.1,2.4-0.2,4.8,0.4,7.1 c0.6,2.3,2.2,4.5,4.5,5.2c2.5,0.7,5.2-0.5,7-2.4c1.7-1.9,2.7-4.4,3.6-6.9c5.3-15.1,8.4-31.3,6.1-47.2c-4.2,0-8.3,2.4-10.3,6 c-0.7,1.2-1.1,2.5-2.1,3.4c-0.9,0.9-2.6,1.4-3.6,0.5"/> 
<path id="XMLID_60_" fill="none" stroke="#ffffff" stroke-width="2.8346" stroke-linecap="round" stroke-linejoin="round" stroke-miterlimit="10" d=" M951.2,501.4c-8.4-10.6-20.8-22.4-33.4-17.4c-6.4,2.6-10.4,8.8-15.1,13.9s-12.2,9.1-18.3,5.9c-4.8-2.6-6.3-9.7-3-14.1 c4.5-5.9,16.1-8.5,13.7-15.5c-0.5-1.5-1.7-2.7-2.2-4.2c-1.8-5.5,5.6-9.1,11.3-10.1c-5.2,1-10.2-3.1-12.2-7.9 c-2-4.9-1.7-10.3-1.3-15.6c5.4-3.3,11.7,2.3,15.3,7.5s9.1,11.2,14.9,8.8c6.3-2.6,8.5-13.9,15.1-12c4,1.1,4.7,6.5,7.8,9.2 c5.3,4.8,13.6-0.4,18.1-6c4.5-5.6,10-12.5,17-11.1c-8.4,3.3-18-7.8-13.6-15.6c-3.3-3.7-9.4,1.6-9.7,6.5c-0.3,5,1.6,10.4-0.9,14.7 c-4.3,7.3-15.5,3.6-22.7-0.9c-2.2-1.4-4.5-2.9-5.7-5.2c-3.6-6.9,4.6-13.8,11.5-17.3c20.7-10.4,43.8-21.2,66.3-15.2 c4.2,1.1,8.7,3.3,10.1,7.4s-3.1,9.5-6.8,7.4c15.2-1.8,30.4-3.6,45.6-5.4c5.4-0.6,10.9-1.3,15.9-3.5c8.3-3.7,14.4-11.4,22.9-14.4 s21.1,3,18.5,11.7c7.8-12.6,26-11.3,40.4-14.9c5.8-1.4,11.2-3.9,17-5.5c34.5-9.6,70.2,13,106,10.9c1.2-0.1,2.4-0.2,3.3-1 c2.4-2.1-0.2-6.4,1.5-9.1c1.6-2.6,5.5-1.8,8.4-0.7c16.9,6.4,34.1,11.7,51.7,15.9c8.8,2.1,17.8,3.9,26.8,3.4 c7.3-0.4,14.7-2.3,21.9-0.9c7.2,1.3,14.4,7.4,13.4,14.7c-1,7.9-10.2,11.6-18.1,12.7s-16.9,1.9-21.6,8.3c-5.5,7.6-2.6,20.3-10.4,25.4 c-7.5,4.8-17.9-3.6-18.3-12.6s5.2-16.9,10.6-24c-13.8,11.5-37.3,5-49.8,17.8c11,9.1,9.1,29.4-3.4,36.3c-4.9,2.7-11.2,4-13.9,8.8 c-2.2,4.1-1,9.1-0.5,13.8s-0.9,10.5-5.4,11.7c-4.1,1.1-8.1-2.4-10.1-6.1c-2-3.8-3-8.1-5.9-11.3c-2.9-3.1-8.8-4-11-0.3 c14.2,10.4,15,34.5,1.5,45.9c-5.9,5-14.4,8.3-16.5,15.8c-0.7,2.6-0.6,5.4-2,7.7c-1.9,3.1-6.6,4-9.5,1.9s-3.5-6.9-1.2-9.6 c-2.1,6.1,5.3,10.9,8,16.7c2.9,6.1-0.6,14.4-6.9,16.7c-6.4,2.3-14.3-1.9-16-8.4c-1.1,1.4-2.1,2.7-3.2,4.1c-3.3-5.7-6.6-11.3-9.9-17 c-2.2,0.5-4.3,1-6.5,1.6c-0.2-9.9-10.2-18.1-20.1-17.3s-18.1,9.7-19.3,19.5c-0.6,4.8,0.3,9.9-1.3,14.5c-1.6,4.6-7.2,8.4-11.3,5.6 c-2.4-1.6-3.1-4.8-3.6-7.6c-2.4-12.9-6.1-26.8-16.4-34.9c-9.4-7.5-22.2-8.5-33.9-11.5c-11-2.9-21.4-7.8-30.6-14.4 c-3,4.1,0.1,10.4,4.7,12.6c4.6,2.2,10,1.8,15.1,1.8c5.1,0,10.8,0.8,14.1,4.6c3.8,4.4,3.1,11.5-0.2,16.3c-3.3,4.8-8.6,7.9-13.8,10.5 c-6.6,3.3-13.3,6.2-20.2,8.7c-2.1,0.8-4.5,1.5-6.6,0.8c-2.3-0.8-3.7-2.9-4.9-4.9c-9.4-15-18.8-30.1-28.2-45.1 c-3.2-5.1-6.1-12.6-1.3-16.4c-6.9-5-14.5-9-22.5-12.1c-2.9,2.3-5.8,4.5-8.6,6.8c-4.6-6.6-9.3-13.3-13.9-19.9c-3.7,1.3-6,5.8-5,9.6"/> 
<path id="XMLID_61_" fill="none" stroke="#ffffff" stroke-width="2.8346" stroke-linecap="round" stroke-linejoin="round" stroke-miterlimit="10" d=" M1217.8,629.5c-5.2-3.8-9.2-9.1-13.8-13.6s-10.4-8.5-16.9-8.5c-1.6,3.4,0.5,7.4,3.2,9.9c2.8,2.5,6.3,4.2,8.7,6.9 c3.2,3.6,4.3,8.5,6.6,12.7c2.1,3.6,5.2,6.6,8.2,9.4c1.7,1.6,3.4,3.2,5.6,4c2.2,0.8,4.9,0.6,6.4-1.2c2.2-2.5,0.8-6.4-0.6-9.4 c-1.8-3.7-3.7-7.7-7.2-10"/> 
<path id="XMLID_62_" fill="none" stroke="#ffffff" stroke-width="2.8346" stroke-linecap="round" stroke-linejoin="round" stroke-miterlimit="10" d=" M1235,614.9c-2.5,0.4-5,0.9-7.5,1.3c-1,5.9,0.7,12.3,4.6,16.9s9.8,7.5,15.8,7.6c2.6,0,5.3-0.4,7.5-1.8c2.2-1.4,3.8-3.9,3.6-6.5 c-0.1-2.1-1.3-4.1-1.1-6.2c0.2-2.4,2.3-4.4,2.6-6.8c0.3-2.8-1.6-5.2-3.2-7.5c-2.3-3.5-3.7-7.5-4.3-11.6c-5,2.8-9.4,6.5-12.9,11.1"/> 
<path id="XMLID_63_" fill="none" stroke="#ffffff" stroke-width="2.8346" stroke-linecap="round" stroke-linejoin="round" stroke-miterlimit="10" d=" M1311,448.5c-2.7,4.4-2,10-1.5,15.1c1,11.3,0.2,22.8-2.4,33.9c-0.4,1.9-0.9,3.9-2,5.5c-4.2,6.3-14.1,5.2-20.1,9.8 c-3.5,2.7-5.4,7.5-4.6,11.8c0.3,1.7,1,3.4,2.4,4.5c3,2.3,7.3,0.4,10.6-1.6c7.5-4.5,15.7-10.4,16.4-19.2c0.4-4.7-1.2-10.6,2.5-13.5 c2.8-2.2,6.9-1.3,10-3.1c3.7-2.2,3.8-8.4,0.2-10.7c-2.1-1.4-4.9-1.4-7.2-2.5c-2.3-1.1-3.7-4.7-1.6-6.1c1-0.6,2.3-0.5,3.1-1.3 c0.8-0.8,0.9-2,0.8-3.2c-0.2-6.7-1.2-14.7-7.2-17.6"/> 
<path id="XMLID_64_" fill="none" stroke="#ffffff" stroke-width="2.8346" stroke-linecap="round" stroke-linejoin="round" stroke-miterlimit="10" d=" M1341.9,660.2c-1.5-2.7,2.9-5.3,5.7-4c2.8,1.3,4.2,4.4,6.2,6.7c2,2.3,5.8,3.9,8,1.7c2.4-2.5,0-6.6-2.6-9c-9.4-9.1-19.8-17.2-31-23.9 c-5.8-3.5-11.9-6.7-18.6-7.4c-3.2-0.4-6.6-0.1-9.3,1.7c-2.7,1.8-4.2,5.5-2.8,8.4c1.4,2.9,5,4,8.1,5.1c18.5,6.6,30.7,27.5,27.2,46.9 c-6.5-3-7.6-12.3-13.7-16.1c-7-4.5-16.1,0.6-22.8,5.5c-6.7,4.9-13.4,9.8-20.1,14.6c-5.2,3.8-10.5,7.6-14.3,12.8 c-6.2,8.2-8.2,19.4-5.3,29.2c2.4,8,7.8,15.4,7,23.7c-0.2,1.8-0.6,3.8,0.4,5.3c0.7,0.9,1.8,1.4,2.9,1.8c8.1,2.7,17.5,0.9,24-4.6 c2.9-2.5,5.3-5.6,8.4-7.8c7.7-5.5,18.7-4.1,26.9,0.6c8.2,4.7,14.5,12.1,20.9,19.1c1.6,1.8,3.4,3.5,5.5,4.5c1.9,0.9,4,1.1,6.1,1.3 c7.8,0.5,16.6-1.2,21.2-7.5c2.1-2.9,3.1-6.5,3.8-10.1c3.1-17.5-1.9-36.3-13.3-49.9c-6.6-7.8-15-13.9-21.9-21.4 c-6.9-7.5-12.3-17.5-10.9-27.6c3.1,0.1,6.2,0.2,9.3,0.3"/> 
<path id="XMLID_65_" fill="none" stroke="#ffffff" stroke-width="2.8346" stroke-linecap="round" stroke-linejoin="round" stroke-miterlimit="10" d=" M1448.2,785.4c-4.4,3.8-8.2,8.3-11.3,13.2c-0.5,0.8-0.9,1.6-0.9,2.4c-0.1,2.1,2.3,3.4,4.3,3.7c4.4,0.6,8.9-1.6,11.8-5 s4.5-7.7,5.3-12.1c0.6-3.4,0.3-7.9-2.9-9.2c-2.1-0.9-4.7,0.2-6.1,2s-1.9,4.2-2,6.4"/> </svg>